<svg viewBox="0 0 252.45 95.41" xmlns="http://www.w3.org/2000/svg"><path d="m252.27 46.36.1-.05.08.08v8.62l-.26-.02c.02-2.88.05-5.75.07-8.63z" fill="#fff"/><path d="m0 42.73v-41.28h86.7v41.28z" fill="#fff"/><path d="m.03 47.53h40.89v41.19h-40.89z" fill="#fff"/><path d="m46.01 47.56h1.29c6.79 0 13.58.01 20.38-.02.82 0 1.41.2 1.99.8 2.91 2.96 5.88 5.87 8.78 8.83.37.38.7 1 .71 1.52.05 7.06.03 14.12.03 21.18 0 .2-.03.39-.06.75h-1.16c-6.83 0-13.66.02-20.49-.03-.59 0-1.32-.31-1.74-.72-3.07-2.97-6.08-6-9.08-9.04-.3-.31-.61-.79-.61-1.19-.04-7.3-.03-14.6-.03-22.09z" fill="#e63746"/><g fill="#fff"><path d="m205.23 42.54v-1.43h3.75c.02.13.09.31.09.5 0 4.34.04 8.69-.03 13.03-.03 1.92-.58 3.73-1.86 5.26-3 3.6-10.54 3.56-12.98-1.81l2.89-1.26c1.05.7 1.9 1.53 2.92 1.88.79.27 1.83.12 2.67-.14 1.77-.54 2.55-2.21 2.51-5.03-1.52 1.36-3.24 2.14-5.21 1.91-1.91-.23-3.55-1.08-4.75-2.66-2.25-2.95-1.99-7.53.57-10.12 2-2.03 5.79-3.23 9.42-.14zm-7.56 5.48c-.01 1.93 1.76 3.81 3.66 3.86 1.9.06 3.81-1.89 3.79-3.85-.02-1.94-1.84-3.77-3.74-3.77-1.93 0-3.7 1.79-3.72 3.76z"/><path d="m174.86 55.03c-1.57 0-2.95.04-4.33-.03-.34-.02-.77-.35-.98-.66-1.31-1.89-2.6-3.8-3.81-5.75-.51-.82-1.05-1.23-2.11-.89v7.27h-4.15v-20.54c3.31 0 6.58-.14 9.84.04 2.67.15 4.82 2.57 5.21 5.39.43 3.11-1.16 6.15-3.8 7.25-.32.13-.66.23-1.11.39 1.73 2.48 3.44 4.93 5.25 7.52zm-11.23-10.79c1.44 0 2.79.06 4.14-.02 1.48-.09 2.64-1.46 2.66-3 .03-1.54-1.09-3.07-2.49-3.18-1.42-.11-2.85-.02-4.32-.02v6.21z"/><path d="m157.81 74.45h3.78v1.62c1.67-1.64 3.51-2.2 5.61-1.93 2.11.27 3.7 1.35 4.81 3.12 1.95 3.1 1.33 7.6-1.28 9.91-2.17 1.92-6.15 2.55-9.09-.3v8.54h-3.84v-20.96zm7.78 3.3c-2.2-.01-3.76 1.51-3.77 3.67 0 2.04 1.63 3.74 3.61 3.76 2.03.02 3.68-1.6 3.73-3.65.05-2.03-1.59-3.76-3.58-3.77z"/><path d="m168.53 28.62h-3.81v-20.97h3.82v1.43c3.88-2.53 7.49-2.27 9.82.64 2.43 3.03 2.18 7.81-.52 10.46-2.17 2.13-6.48 2.78-9.32-.14v8.57zm7.43-13.85c.01-2.2-1.45-3.79-3.49-3.82-2.16-.03-3.89 1.68-3.85 3.79.04 1.94 1.71 3.61 3.64 3.63 2.14.02 3.68-1.49 3.69-3.61z"/><path d="m111.71 48.92 3.03 2.21c-2.25 3.46-7.01 5.14-11.07 3.99-4.65-1.32-7.69-5.14-7.88-9.86-.2-4.88 2.55-9.1 6.97-10.68 4.45-1.6 9.08-.21 12.03 3.67l-3.04 2.21c-3.9-3.31-7.31-3.46-10.05-.48-2.51 2.73-2.37 7.16.32 9.78 2.73 2.67 6.35 2.38 9.7-.83z"/><path d="m101.16 80.11v8.34h-4.02v-20.69h12.62v3.54h-8.54v5.08h6.82v3.73z"/><path d="m137.3 82.79h-10.37c1 3.05 3.82 3.43 7.38.99.69.73 1.4 1.46 2.1 2.2-1.88 2.82-6.87 3.73-10.12 1.88-3.31-1.89-4.56-6.31-2.79-9.86 1.7-3.41 6.13-4.9 9.85-3.36 3.61 1.49 4.86 5.81 3.95 8.16zm-3.79-2.68c-.19-1.7-1.33-2.72-3.11-2.73-1.34 0-3.13.54-3.48 2.73z"/><path d="m154.6 82.76h-10.48c.47 3 3.96 3.49 7.17 1.08.75.68 1.5 1.37 2.22 2.03-1.51 2.61-6.07 3.74-9.34 2.38-3.41-1.42-5.16-5.29-4.07-9 1.08-3.66 4.53-5.68 8.71-5.09 3.84.54 5.95 3.63 5.79 8.6zm-10.55-2.68h6.58c-.15-1.85-1.64-2.63-3.27-2.7-1.67-.07-2.94 1-3.31 2.7z"/><path d="m145.67 17.05 2.23 2.25c-1.94 2.92-7.41 3.57-10.43 1.59-3.1-2.04-4.19-6.31-2.39-9.79 1.69-3.27 5.91-4.66 9.56-3.3 3.47 1.3 5.08 5.39 4.21 8.15h-10.37c.56 3.03 4.13 3.56 7.18 1.1zm-.68-3.74c-.09-1.45-1.07-2.45-2.46-2.59-2.47-.25-3.8.83-4.09 2.59h6.54z"/><path d="m191.2 49.31c-3.46 0-6.85 0-10.24 0-.03 0-.06.03-.1.05.66 2.99 3.93 3.48 7.3 1.07l2.18 2.13c-2.21 3-6.95 3.83-10.3 1.84-3.14-1.86-4.34-6.13-2.71-9.62 1.61-3.44 5.63-4.99 9.5-3.66 3.32 1.14 5.18 4.57 4.36 8.19zm-3.79-2.52c.13-1.75-1.78-2.83-3.23-2.8-1.85.03-3.19 1.14-3.3 2.8z"/><path d="m183.02 74.07c4.33-.02 7.57 3.09 7.59 7.29.02 4.29-3.1 7.31-7.41 7.46-3.8.13-7.67-2.71-7.71-7.16-.03-4.41 3.11-7.57 7.53-7.58zm.06 3.68c-2.08 0-3.65 1.59-3.66 3.7 0 2.06 1.64 3.73 3.67 3.72 1.99 0 3.56-1.63 3.58-3.68.02-2.14-1.51-3.74-3.59-3.74z"/><path d="m227.87 40.64c4.25 0 7.57 3.29 7.56 7.47-.01 4.09-3.38 7.4-7.58 7.36-4.39-.05-7.58-3.31-7.58-7.43 0-4.01 3.21-7.4 7.61-7.4zm3.48 7.39c.23-2.05-1.58-3.75-3.55-3.77-1.95-.02-3.63 1.79-3.62 3.82 0 2 1.77 3.9 3.67 3.78 2.42-.15 3.72-2.05 3.51-3.83z"/><path d="m189.97 22.06c-4.15.04-7.36-3.06-7.58-6.93-.25-4.48 3.28-7.86 7.52-7.84 4.29.02 7.58 3.13 7.64 7.29.05 4.21-3.22 7.44-7.58 7.48zm3.5-7.42c0-2.2-1.45-3.69-3.58-3.68-2.02 0-3.63 1.69-3.6 3.76.03 2.12 1.59 3.67 3.68 3.66 2.11 0 3.5-1.5 3.5-3.74z"/><path d="m207.39 22.05c-4.32 0-7.51-3.09-7.53-7.32-.02-4.3 3.15-7.45 7.52-7.45s7.54 3.12 7.53 7.44c0 4.23-3.18 7.32-7.51 7.33zm-.06-3.67c2.13 0 3.63-1.5 3.64-3.66.02-2.17-1.47-3.76-3.54-3.77-2.11 0-3.64 1.52-3.66 3.66-.02 2.16 1.48 3.75 3.55 3.76z"/><path d="m142.37 49.17c1.02-2.54 1.99-4.85 2.86-7.19.26-.71.57-1.01 1.34-.96 1.03.07 2.07.02 3.26.02-.91 2.19-1.76 4.28-2.63 6.37-1.9 4.58-3.82 9.16-5.69 13.75-.25.61-.51.87-1.19.83-1.03-.06-2.07-.02-3.32-.02.66-1.66 1.12-3.29 1.92-4.73 1.31-2.34 1.23-4.42-.04-6.81-1.58-2.97-2.75-6.16-4.16-9.4 1.33 0 2.55-.05 3.77.04.3.02.69.44.83.77 1.01 2.35 1.97 4.72 3.05 7.34z"/><path d="m252.27 46.36c-.02 2.88-.05 5.75-.07 8.63h-3.82c0-2.48 0-4.94 0-7.4 0-1.92-.96-3.13-2.58-3.26-1.65-.13-3.03.95-3.21 2.79-.17 1.74-.09 3.5-.11 5.25-.01.84 0 1.67 0 2.58h-3.86v-13.86h3.82v2.06c1.21-1.59 2.5-2.43 4.14-2.49 3.02-.12 5.5 1.55 5.7 5.7z"/><path d="m109.03 18v3.68h-11.9v-20.71h4v17.03h7.91z"/><path d="m123.79 21.73c-1.98-4.69-3.94-9.32-5.96-14.13 1.36 0 2.58-.05 3.79.04.29.02.66.49.8.82 1.04 2.64 2.03 5.29 3.12 8.18.79-2.05 1.5-3.9 2.21-5.75.41-1.06.55-2.53 1.33-3.07.79-.55 2.21-.18 3.36-.22h.82c-1.41 3.35-2.79 6.61-4.16 9.86-.46 1.09-.97 2.16-1.35 3.28-.28.84-.77 1.07-1.59 1-.79-.07-1.59-.01-2.37-.01z"/><path d="m207.66 77.52h-2.61v-3.08h2.54v-5.1h3.85v5h3.07v3.14h-3v10.98h-3.84v-10.95z"/><path d="m133.8 44.02h-2.88v10.95h-3.87v-10.89h-2.55v-3.07h2.5v-5.09h3.86v5.1h2.95v3.01z"/><path d="m221.95 21.68h-3.76v-21.68h3.76z"/><path d="m156.07 21.7h-3.78v-14.02h3.73v2.26c.91-.79 1.73-1.75 2.77-2.32 1.13-.62 2.44-.4 3.64.08-.23 1.05-.44 2.06-.67 3.05-.05.23-.18.43-.27.65-2.62-1.04-4.28-.35-4.93 2.4-.42 1.79-.36 3.69-.48 5.54-.05.75 0 1.5 0 2.36z"/><path d="m193.92 74.45h3.73v2.47l.19.05c.16-.28.31-.57.48-.85 1-1.75 3.31-2.61 5.17-1.88.24.09.5.6.45.86-.18 1-.48 1.98-.75 3.05-.39-.12-.78-.29-1.19-.36-1.75-.3-3.15.45-3.68 2.23-.35 1.19-.44 2.48-.51 3.73-.08 1.54-.02 3.1-.02 4.72h-3.86v-14z"/><path d="m111.68 74.45h3.7v2.4c1.43-2.72 3.61-3.27 6.45-2.4l-.86 3.65c-.21-.04-.43-.07-.63-.13-2.1-.66-3.65.02-4.29 2.12-.36 1.19-.42 2.48-.49 3.74-.08 1.43-.02 2.87-.02 4.31 0 .08-.02.15-.04.31h-3.81v-14z"/><path d="m115.57 21.7h-3.8v-14.02h3.8z"/><path d="m121.46 54.99h-3.7v-13.88h3.7z"/><path d="m216.96 54.99h-3.77v-13.89h3.77z"/><path d="m122.04 36.12c0 1.37-1.02 2.36-2.43 2.37-1.39.01-2.46-.99-2.47-2.33-.02-1.4.93-2.3 2.44-2.31 1.5-.01 2.47.88 2.46 2.27z"/><path d="m116.11 2.68c.02 1.43-.9 2.35-2.37 2.38-1.45.02-2.49-.91-2.52-2.26s.98-2.36 2.39-2.38c1.46-.02 2.47.9 2.49 2.26z"/><path d="m215.1 33.85c1.53 0 2.45.86 2.44 2.29-.01 1.37-1.03 2.36-2.43 2.35-1.39 0-2.45-1.01-2.46-2.35 0-1.37.97-2.29 2.45-2.29z"/></g></svg>