<?xml version="1.0" encoding="UTF-8" standalone="no"?>
<!DOCTYPE svg PUBLIC "-//W3C//DTD SVG 1.1//EN" "http://www.w3.org/Graphics/SVG/1.1/DTD/svg11.dtd">
<svg width="1272.00" height="1272.00" viewBox="0.00 0.00 1272.00 1272.00" xmlns="http://www.w3.org/2000/svg" xmlns:xlink="http://www.w3.org/1999/xlink">
<g stroke-linecap="round" id="G_2">
<path d="M938.50,235.50 C946.55,236.73 950.63,236.02 950.50,235.50 C950.09,234.22 948.10,233.33 946.21,233.68 C945.24,233.87 921.15,237.68 916.89,238.58 C912.77,239.49 907.14,242.05 903.99,244.84 C901.54,247.05 897.64,251.49 895.12,254.74 C891.27,259.79 886.40,273.68 882.97,285.30 C878.55,301.73 873.81,319.33 873.50,320.50" fill="none" stroke="rgb(0, 0, 0)" stroke-width="24.80" stroke-opacity="1.00" stroke-linejoin="round"/>
<path d="M650.50,647.50 C644.09,648.97 627.40,652.87 622.50,655.50 C618.46,657.73 613.65,662.77 611.14,666.89 C607.47,673.07 602.95,686.00 601.94,691.83 C600.52,700.22 600.38,713.85 600.30,719.57 C600.13,749.87 600.00,820.62 600.03,861.07 C599.92,893.59 599.54,948.72 599.54,949.08 C599.58,952.44 597.90,957.14 595.22,961.02 C591.36,966.50 584.23,973.94 576.70,980.24 C568.80,986.65 559.05,993.61 551.62,998.15 C545.31,1001.84 531.51,1009.36 524.57,1012.48 C517.19,1015.79 502.85,1020.75 493.57,1023.23 C485.89,1025.16 471.25,1028.47 463.16,1029.46 C456.59,1030.25 443.04,1030.61 434.65,1029.84 C430.60,1029.46 415.34,1027.50 405.75,1025.79 C395.81,1023.92 383.47,1020.88 376.39,1018.47 C369.88,1016.18 355.70,1010.72 348.39,1007.65 C341.32,1004.50 328.05,997.77 320.81,993.18 C315.18,989.59 301.87,979.47 296.21,974.83 C291.10,970.51 281.74,961.16 275.10,953.81 C268.00,945.62 263.17,939.58 256.34,930.43 C250.11,921.78 242.27,909.76 238.65,903.21 C232.91,892.58 215.85,857.01 213.16,849.29 C210.48,841.53 200.58,805.71 196.22,789.58 C193.75,779.65 191.17,767.47 189.87,760.60 C187.75,747.96 184.70,716.39 183.67,701.36 C182.82,684.56 181.48,648.10 181.56,636.18 C181.73,628.19 182.39,613.17 182.89,606.09 C183.55,598.92 185.35,584.12 186.50,576.50 C189.36,560.14 196.64,528.61 199.96,514.70 C200.10,514.08 210.87,483.46 217.20,467.24 C221.16,457.26 226.79,444.90 231.22,436.67 C237.73,424.78 254.72,398.71 266.59,381.89 C270.62,376.41 280.12,363.67 285.54,357.48 C292.60,349.47 312.83,332.55 327.75,321.54 C336.09,315.70 347.98,308.65 353.38,305.96 C360.70,302.34 373.41,297.73 383.39,294.86 C391.69,292.66 409.94,288.54 414.45,287.88 C422.28,286.76 434.72,286.54 442.50,287.50 C449.04,288.33 466.78,292.12 474.32,293.91 C484.30,296.42 491.44,299.56 493.50,300.50" fill="none" stroke="rgb(0, 0, 0)" stroke-width="24.80" stroke-opacity="1.00" stroke-linejoin="round"/>
<path d="M617.50,493.50 C617.33,492.36 616.92,489.52 616.68,487.83 C616.39,485.93 617.00,484.50 617.50,483.50 C617.56,483.28 614.40,390.32 613.03,351.06 C611.37,300.95 611.70,292.34 611.70,289.22 C611.68,287.67 611.01,287.12 610.08,288.05 C608.35,289.86 607.42,295.75 606.50,298.50 C605.79,300.62 603.03,307.04 600.87,311.69 C599.09,315.49 595.75,320.55 593.50,322.50 C590.68,324.85 584.50,327.45 580.82,328.00 C576.58,328.58 570.64,329.04 567.20,328.85 C560.76,328.44 550.35,325.34 539.50,321.50 C535.61,320.03 527.60,316.93 523.49,315.32 C520.19,313.94 514.31,311.50 512.24,309.79 C510.53,308.38 506.41,307.69 504.22,305.96 C503.92,305.72 503.34,305.23 502.50,304.50" fill="none" stroke="rgb(0, 0, 0)" stroke-width="24.80" stroke-opacity="1.00" stroke-linejoin="round"/>
<path d="M490.50,646.50 C511.58,649.31 527.65,652.36 534.75,654.55 C539.14,655.92 545.15,658.66 547.50,660.50 C550.58,662.98 554.45,668.55 556.88,673.18 C559.82,678.86 563.46,693.99 564.35,700.32 C566.20,714.87 566.95,737.54 567.20,748.13 C567.36,782.98 567.51,854.25 567.48,890.67 C567.33,906.93 566.89,935.57 566.59,947.95 C566.53,951.03 565.07,960.20 564.00,963.72 C563.26,966.08 560.25,972.82 558.89,975.68 C557.56,978.50 554.16,983.45 552.44,985.97 C549.94,989.54 545.97,993.90 542.37,996.69 C537.88,1000.15 523.95,1007.58 516.87,1010.79 C509.14,1014.28 492.76,1018.98 484.65,1020.08 C476.69,1021.13 462.01,1021.56 451.49,1021.11 C443.82,1020.68 426.21,1019.52 420.96,1018.88 C412.33,1017.81 397.70,1013.99 392.84,1012.17 C388.61,1010.59 376.13,1005.37 367.44,1001.02 C362.42,998.46 350.57,991.11 343.73,985.91 C338.32,981.70 325.91,971.59 320.50,966.50 C317.70,963.85 304.51,949.95 301.14,945.65 C296.01,939.08 288.53,927.43 283.21,918.38 C277.17,907.70 257.67,869.35 254.59,862.07 C250.94,853.41 248.07,844.55 245.23,834.49 C242.48,824.49 234.48,791.20 231.50,774.50 C230.39,767.70 226.20,730.95 224.98,714.81 C224.31,703.18 223.67,668.75 223.78,653.02 C224.11,637.70 225.83,605.09 227.25,588.35 C228.71,573.93 232.00,542.78 233.94,532.38 C235.99,521.48 245.98,486.37 250.77,470.04 C253.30,462.05 259.39,443.48 260.50,440.50 C263.97,431.22 269.15,420.22 273.68,412.18 C280.36,400.60 299.61,370.89 306.50,362.50 C310.58,357.56 322.14,345.55 327.71,340.48 C334.15,334.64 344.85,326.38 352.35,321.48 C359.44,316.86 373.58,309.04 379.50,306.50 C386.17,303.66 400.47,299.51 408.15,298.13 C415.94,296.75 430.24,295.69 437.83,295.52 C446.62,295.45 461.31,296.14 468.39,297.12 C475.61,298.14 494.73,302.57 495.50,302.50" fill="none" stroke="rgb(0, 0, 0)" stroke-width="24.80" stroke-opacity="1.00" stroke-linejoin="round"/>
<path d="M522.50,315.50 C529.98,320.39 536.28,325.16 543.32,332.27 C546.73,335.79 561.39,352.68 563.50,355.50 C568.53,362.26 575.50,375.67 578.79,382.07 C581.57,387.60 587.50,399.55 591.38,409.79 C597.92,427.67 614.84,480.33 616.50,485.50" fill="none" stroke="rgb(0, 0, 0)" stroke-width="24.80" stroke-opacity="1.00" stroke-linejoin="round"/>
<path d="M1089.50,409.50 C1092.25,402.14 1098.80,384.02 1099.27,379.53 C1099.57,376.87 1099.62,373.90 1098.87,370.86 C1097.31,364.46 1095.63,358.21 1094.50,355.50 C1092.89,351.72 1088.88,346.45 1085.50,343.00 C1084.46,341.94 1076.92,335.12 1074.80,333.66 C1071.62,331.51 1065.35,329.53 1061.70,329.53 C1059.13,329.55 1049.71,331.17 1048.50,331.50 C1044.47,332.62 1038.13,335.79 1034.50,338.50 C1030.74,341.35 1019.12,352.90 1015.53,358.35 C1012.00,363.76 1006.32,377.00 1003.21,386.09 C1000.77,393.53 995.96,409.36 994.20,415.76 C993.19,419.53 991.95,426.90 992.26,429.31 C992.95,433.93 1000.04,448.88 1003.78,453.49 C1006.08,456.28 1011.24,460.51 1015.05,462.61 C1017.68,464.04 1025.09,467.53 1025.50,467.50 C1026.24,467.44 1027.83,466.38 1028.99,466.81 C1031.29,467.63 1039.39,466.81 1041.09,466.47 C1044.78,465.72 1051.90,462.35 1055.11,460.28 C1058.23,458.24 1064.16,453.47 1066.90,450.49 C1072.06,444.84 1080.00,431.17 1084.62,420.89 C1086.08,417.55 1089.53,409.87 1089.50,409.50 C1089.42,408.45 1088.40,406.07 1088.52,404.16 C1088.86,396.80 1089.71,379.23 1089.61,372.23 C1089.44,362.29 1087.79,354.06 1085.50,344.50" fill="none" stroke="rgb(0, 0, 0)" stroke-width="24.80" stroke-opacity="1.00" stroke-linejoin="round"/>
<path d="M792.50,336.50 C791.70,335.67 789.52,333.24 788.72,332.80 C785.92,331.30 777.90,331.41 774.33,331.88 C772.08,332.18 763.12,333.69 760.74,334.58 C759.70,334.98 753.89,339.66 751.28,341.82 C747.81,344.81 743.71,349.62 741.55,352.98 C738.00,358.58 731.73,370.54 728.29,378.19 C723.83,388.24 720.17,397.98 717.40,407.65 C715.29,415.61 710.62,435.43 710.50,436.50 C710.23,439.13 711.58,444.76 712.37,447.39 C713.24,450.36 714.24,452.73 715.50,454.50 C717.06,456.64 724.58,462.77 726.50,463.50 C728.01,464.02 730.07,463.05 730.70,462.75 C733.95,461.19 757.18,457.69 757.50,457.50 C758.31,457.02 759.90,455.15 761.16,454.73 C767.35,452.58 778.83,444.24 788.80,436.27 C790.14,435.19 792.50,433.31 793.50,432.50" fill="none" stroke="rgb(0, 0, 0)" stroke-width="24.80" stroke-opacity="1.00" stroke-linejoin="round"/>
<path d="M945.50,351.50 C944.62,350.87 944.36,350.08 944.68,348.27 C945.06,345.92 945.04,343.36 944.50,341.50 C944.16,340.38 942.28,337.18 941.41,336.15 C940.13,334.70 937.43,333.04 935.50,332.50 C932.67,331.79 925.90,332.51 920.70,333.65 C916.41,334.64 908.87,338.86 907.50,339.50 C906.10,340.17 903.17,340.99 903.00,341.07 C899.83,342.75 880.37,361.94 879.50,362.50 C878.70,363.01 871.56,364.53 871.50,364.50 C871.29,364.40 868.24,361.32 867.50,361.50 C866.68,361.71 864.75,364.39 863.50,366.50" fill="none" stroke="rgb(0, 0, 0)" stroke-width="24.80" stroke-opacity="1.00" stroke-linejoin="round"/>
<path d="M794.50,337.50 C796.39,339.08 798.79,341.78 799.50,343.50 C800.22,345.32 797.64,353.35 796.13,356.72 C795.23,358.72 791.50,366.50 789.93,369.56 C788.47,372.36 784.90,376.22 781.23,379.27 C776.03,383.56 762.10,392.78 755.24,396.15 C751.75,397.85 744.53,401.04 741.32,402.38 C737.44,403.98 730.08,406.18 728.50,405.50 C727.25,404.93 725.45,402.99 724.50,401.50" fill="none" stroke="rgb(0, 0, 0)" stroke-width="24.80" stroke-opacity="1.00" stroke-linejoin="round"/>
<path d="M793.50,338.50 C793.50,338.50 795.50,356.50 795.50,356.50" fill="none" stroke="rgb(0, 0, 0)" stroke-width="24.80" stroke-opacity="1.00" stroke-linejoin="round"/>
<path d="M945.50,342.50 C946.45,343.61 947.57,345.48 947.50,346.50 C947.45,347.19 944.92,352.34 944.50,353.50 C943.83,355.30 942.85,362.98 942.50,363.50 C941.97,364.28 940.92,364.66 940.50,365.50 C940.20,366.09 940.66,366.85 940.50,367.50 C940.47,367.60 933.11,375.41 931.95,376.49 C928.91,379.27 921.79,383.54 917.94,385.04 C906.62,389.34 883.77,391.26 881.29,391.24 C880.05,391.23 878.89,391.82 876.50,393.50" fill="none" stroke="rgb(0, 0, 0)" stroke-width="24.80" stroke-opacity="1.00" stroke-linejoin="round"/>
<path d="M870.50,332.50 C869.96,335.15 870.67,337.67 870.50,338.50 C870.44,338.82 867.72,341.69 867.50,342.50 C867.31,343.17 868.48,346.26 868.50,346.50 C868.54,346.86 867.35,352.71 867.44,358.84 C867.46,359.73 867.48,360.61 867.50,361.50" fill="none" stroke="rgb(0, 0, 0)" stroke-width="24.80" stroke-opacity="1.00" stroke-linejoin="round"/>
<path d="M868.50,347.50 C871.09,350.09 875.09,354.09 876.50,355.50 C878.09,357.09 880.59,359.59 881.50,360.50" fill="none" stroke="rgb(0, 0, 0)" stroke-width="24.80" stroke-opacity="1.00" stroke-linejoin="round"/>
<path d="M870.50,332.50 C871.54,333.10 871.48,333.71 869.96,335.80 C868.66,337.61 868.36,339.20 868.99,340.61 C869.62,342.00 869.32,343.36 868.04,344.70 C867.04,345.74 866.53,346.34 866.50,346.50 C866.34,347.34 866.99,348.15 867.00,349.00 C867.01,349.63 863.13,359.64 863.25,363.04 C863.29,364.10 863.73,367.83 863.50,368.50 C863.39,368.82 860.96,371.59 860.50,372.50 C859.85,373.80 842.11,449.33 839.50,460.50" fill="none" stroke="rgb(0, 0, 0)" stroke-width="24.80" stroke-opacity="1.00" stroke-linejoin="round"/>
<path d="M858.50,388.50 C859.14,387.32 860.47,386.25 861.50,386.50 C862.23,386.69 865.10,389.84 865.94,390.70 C867.35,392.12 869.57,392.86 872.57,393.07 C875.42,393.27 876.87,393.86 877.55,395.26 C879.36,399.18 881.88,402.08 885.16,404.37 C888.66,406.80 892.21,410.10 894.25,412.60 C897.69,416.95 916.90,455.03 924.18,469.79 C927.76,477.21 933.72,489.59 937.19,495.37 C941.27,502.00 951.45,517.51 954.08,519.92 C956.87,522.41 974.22,530.10 979.50,531.50 C983.02,532.41 989.20,533.02 992.49,532.83 C998.49,532.42 1009.98,527.41 1012.51,525.51 C1014.95,523.63 1017.47,518.46 1018.48,514.32 C1019.51,509.82 1019.47,506.17 1018.50,504.50" fill="none" stroke="rgb(0, 0, 0)" stroke-width="24.80" stroke-opacity="1.00" stroke-linejoin="round"/>
<path d="M857.50,387.50 C857.50,387.50 856.50,391.50 856.50,391.50" fill="none" stroke="rgb(0, 0, 0)" stroke-width="24.80" stroke-opacity="1.00" stroke-linejoin="round"/>
<path d="M862.50,365.50 C862.20,366.74 861.39,369.99 861.50,370.50 C861.65,371.23 862.34,371.77 862.50,372.50 C862.58,372.87 860.48,386.08 860.00,387.50 C859.51,388.97 857.50,392.50 856.28,397.74 C852.58,414.79 843.54,456.56 842.44,459.11 C842.05,459.96 841.74,460.42 841.50,460.50 C840.86,460.70 838.91,460.65 836.74,462.15 C834.88,463.45 831.75,465.62 830.50,466.50" fill="none" stroke="rgb(0, 0, 0)" stroke-width="24.80" stroke-opacity="1.00" stroke-linejoin="round"/>
<path d="M1008.50,455.50 C1005.13,444.87 1002.71,435.98 1002.28,425.68 C1001.99,417.91 1003.40,394.07 1003.42,393.84 C1003.58,391.85 1003.37,390.96 1002.50,389.50" fill="none" stroke="rgb(0, 0, 0)" stroke-width="24.80" stroke-opacity="1.00" stroke-linejoin="round"/>
<path d="M723.50,391.50 C723.72,392.89 724.41,397.39 724.53,398.44 C724.74,400.56 724.20,402.66 723.20,403.74 C722.64,404.33 721.85,404.76 721.50,405.50 C721.32,405.89 720.62,432.34 720.82,437.36 C721.00,441.69 722.16,450.36 722.50,451.50 C723.43,454.39 725.50,457.96 727.04,458.95 C727.73,459.38 733.34,461.13 734.50,461.50" fill="none" stroke="rgb(0, 0, 0)" stroke-width="24.80" stroke-opacity="1.00" stroke-linejoin="round"/>
<path d="M503.50,647.50 C504.94,646.65 505.85,646.41 507.86,646.48 C508.24,646.50 602.25,646.47 633.50,646.50 C637.61,646.47 644.94,646.39 647.53,646.41 C649.06,646.38 651.45,647.39 652.50,647.50 C653.18,647.58 657.74,646.40 658.50,646.50 C658.94,646.56 659.60,646.89 660.50,647.50" fill="none" stroke="rgb(0, 0, 0)" stroke-width="24.80" stroke-opacity="1.00" stroke-linejoin="round"/>
<path d="M829.50,648.50 C833.81,643.80 844.32,632.43 849.28,627.92 C855.25,622.51 866.13,614.85 874.59,609.87 C881.51,605.95 896.80,597.84 903.38,594.84 C907.08,593.19 915.34,590.28 919.01,589.48 C922.25,588.80 929.65,588.28 932.50,588.50 C938.60,589.02 955.33,594.73 960.66,597.31 C963.63,598.77 968.33,602.20 970.70,604.67 C973.16,607.25 977.56,612.63 979.68,615.67 C981.72,618.66 984.67,624.95 985.90,628.75 C987.18,632.82 988.03,637.47 987.82,639.97 C987.48,643.44 981.78,661.59 979.39,666.71 C976.26,673.33 968.93,684.16 961.85,693.51 C956.94,699.84 944.16,714.18 943.50,714.50 C942.00,715.00 940.06,715.72 939.55,716.77 C937.28,721.24 925.56,731.79 916.15,739.64 C914.56,740.98 911.33,743.87 910.47,744.62 C908.27,746.55 906.59,751.62 905.05,752.92 C897.14,759.68 872.89,773.87 866.50,777.50" fill="none" stroke="rgb(0, 0, 0)" stroke-width="24.80" stroke-opacity="1.00" stroke-linejoin="round"/>
<path d="M940.50,715.50 C946.18,705.91 950.43,696.81 952.44,689.17 C954.29,682.08 955.84,667.96 955.76,659.91 C955.64,650.82 953.61,636.74 951.05,630.72 C949.46,627.05 945.44,620.91 942.82,617.98 C940.57,615.51 935.31,611.16 932.07,609.63 C928.87,608.17 922.18,607.08 917.46,606.72 C903.26,605.71 884.70,608.13 880.88,609.12 C879.05,609.60 877.97,609.39 876.50,608.50" fill="none" stroke="rgb(0, 0, 0)" stroke-width="24.80" stroke-opacity="1.00" stroke-linejoin="round"/>
<path d="M817.50,650.50 C821.37,650.11 827.20,648.81 828.10,648.73 C829.65,648.63 830.18,652.89 830.50,657.50" fill="none" stroke="rgb(0, 0, 0)" stroke-width="24.80" stroke-opacity="1.00" stroke-linejoin="round"/>
<path d="M906.50,751.50 C907.25,757.87 907.65,762.94 908.50,763.50 C908.72,763.63 918.67,764.09 921.86,764.61 C925.99,765.29 933.88,767.42 937.74,768.72 C942.30,770.27 949.66,773.65 952.50,775.50 C956.23,777.98 961.06,782.81 964.29,786.94 C967.80,791.49 970.31,795.12 972.22,798.50 C975.42,804.25 979.67,820.43 980.50,825.24 C981.10,828.81 981.60,836.52 981.32,840.29 C980.78,846.98 976.11,864.98 974.25,870.00 C971.44,877.52 965.10,890.41 960.88,897.13 C957.35,902.62 948.34,915.83 944.15,920.86 C938.81,927.27 927.05,938.84 920.61,944.58 C908.98,954.30 894.81,966.13 890.50,968.50" fill="none" stroke="rgb(0, 0, 0)" stroke-width="24.80" stroke-opacity="1.00" stroke-linejoin="round"/>
<path d="M840.50,795.50 C842.26,793.13 846.60,787.31 848.80,784.49 C850.09,782.87 851.36,781.75 852.26,781.58 C853.00,781.46 855.13,781.42 857.15,780.72 C863.77,778.39 866.15,777.46 866.50,777.50 C867.24,777.60 868.87,778.63 870.96,778.70 C875.70,778.95 898.82,779.62 902.18,780.26 C904.43,780.72 909.76,783.07 913.63,785.07 C917.93,787.37 922.96,790.64 925.79,793.47 C930.74,798.54 936.11,809.37 940.59,820.18 C941.97,823.41 943.50,836.77 943.42,841.91 C943.21,849.52 942.65,867.94 941.99,874.94 C941.13,883.90 937.80,899.56 934.89,906.32 C932.21,912.46 924.80,925.58 920.28,932.13 C910.65,946.00 898.39,959.12 889.50,967.50" fill="none" stroke="rgb(0, 0, 0)" stroke-width="24.80" stroke-opacity="1.00" stroke-linejoin="round"/>
<path d="M825.50,996.50 C822.69,996.33 814.57,995.84 811.54,995.34 C807.70,994.68 800.76,992.42 797.86,991.04 C792.09,988.23 780.00,978.56 771.53,970.73 C763.13,963.11 757.17,958.19 755.43,957.61 C754.32,957.30 752.30,957.84 751.21,958.81 C749.16,960.72 746.19,965.85 746.50,967.50 C747.04,969.91 749.72,973.82 753.08,977.52 C756.20,980.88 761.16,985.02 765.50,987.50 C770.65,990.40 786.80,996.19 794.11,997.84 C802.23,999.61 811.62,999.00 823.50,997.50 C835.70,995.66 844.35,993.91 852.69,990.11 C858.79,987.29 873.27,979.24 879.45,975.72 C881.83,974.38 883.78,972.35 884.50,971.50" fill="none" stroke="rgb(0, 0, 0)" stroke-width="24.80" stroke-opacity="1.00" stroke-linejoin="round"/>
<path d="M105.50,83.50 C105.53,83.50 169.47,83.42 193.01,83.40 C219.88,83.38 276.96,83.36 307.16,83.35 C340.70,83.35 411.10,83.35 447.97,83.36 C488.17,83.37 571.78,83.41 615.19,83.43 C657.58,83.45 739.19,83.48 778.42,83.50 C814.46,83.51 883.39,83.53 916.27,83.53 C945.98,83.54 1002.23,83.53 1028.77,83.53 C1052.14,83.52 1102.67,83.46 1129.83,83.41 C1143.83,83.37 1166.38,83.49 1170.24,84.12 C1174.43,84.83 1181.58,87.77 1183.50,89.50 C1184.36,90.30 1188.42,97.08 1189.53,99.74 C1192.43,106.81 1192.76,118.21 1192.91,122.85 C1193.10,146.27 1192.65,213.47 1192.48,250.30 C1192.45,274.13 1192.39,325.31 1192.37,352.68 C1192.35,383.59 1192.33,448.96 1192.32,483.42 C1192.32,521.43 1192.33,600.81 1192.34,642.19 C1192.35,682.18 1192.38,758.59 1192.39,795.02 C1192.40,827.89 1192.43,890.08 1192.45,919.39 C1192.46,945.14 1192.48,997.98 1192.48,1025.07 C1192.43,1060.50 1192.38,1120.63 1192.39,1145.34 C1192.19,1158.74 1191.60,1170.24 1190.50,1173.50 C1189.64,1175.97 1184.93,1182.47 1182.48,1184.48 C1179.58,1186.79 1171.96,1189.59 1169.88,1189.60 C1169.68,1189.60 1145.36,1190.46 1135.94,1190.66 C1111.13,1190.66 1045.90,1190.59 1005.48,1190.51 C963.86,1190.49 895.84,1190.45 869.44,1190.43 C840.09,1190.42 778.47,1190.40 746.19,1190.40 C710.98,1190.41 637.61,1190.44 599.45,1190.46 C558.36,1190.49 476.00,1190.55 434.74,1190.58 C397.24,1190.60 326.03,1190.62 292.32,1190.63 C262.40,1190.63 206.36,1190.61 180.23,1190.60 C157.90,1190.57 125.82,1190.53 116.08,1190.51 C114.12,1190.50 107.05,1190.14 103.58,1189.08 C99.64,1187.83 95.52,1185.24 92.02,1181.81 C88.89,1178.65 86.87,1174.01 86.28,1170.15 C85.50,1164.67 85.50,1101.03 85.50,1078.22 C85.51,1052.20 85.51,996.96 85.52,967.74 C85.52,935.31 85.53,867.25 85.54,831.62 C85.55,792.78 85.57,711.91 85.58,669.87 C85.59,626.00 85.61,541.10 85.61,500.06 C85.62,462.23 85.62,389.77 85.61,355.14 C85.61,323.72 85.59,264.07 85.58,235.86 C85.57,210.84 85.54,164.02 85.52,142.21 C85.50,127.52 84.82,109.64 85.12,106.10 C85.44,102.86 87.66,97.80 90.48,94.01 C92.55,91.30 99.13,85.60 99.50,85.50 C100.15,85.33 101.58,85.49 103.03,84.59 C103.99,84.02 104.81,83.66 105.50,83.50 Z" fill="none" stroke="rgb(0, 0, 0)" stroke-width="24.80" stroke-opacity="1.00" stroke-linejoin="round"/>
<path d="M111.50,108.50 C111.54,108.49 175.47,108.30 198.97,108.24 C225.74,108.20 282.54,108.13 312.58,108.10 C345.88,108.08 415.76,108.07 452.33,108.08 C492.17,108.09 575.12,108.14 618.23,108.18 C661.57,108.21 745.07,108.28 785.23,108.32 C822.20,108.34 892.94,108.40 926.71,108.42 C957.29,108.44 1015.27,108.47 1042.66,108.48 C1066.86,108.49 1112.08,108.50 1133.09,108.50 C1141.49,108.45 1157.69,108.29 1163.44,108.37 C1165.23,108.38 1166.26,108.87 1166.50,110.01 C1166.50,110.04 1166.46,173.79 1166.45,197.18 C1166.44,223.82 1166.43,280.38 1166.42,310.29 C1166.42,343.46 1166.41,413.08 1166.41,449.52 C1166.41,489.22 1166.41,571.89 1166.41,614.86 C1166.42,658.42 1166.43,742.36 1166.43,782.73 C1166.44,819.87 1166.45,890.94 1166.45,924.86 C1166.46,955.55 1166.47,1013.71 1166.47,1041.18 C1166.48,1065.42 1166.49,1110.68 1166.50,1131.70 C1166.50,1136.50 1166.18,1152.29 1166.50,1156.50 C1166.71,1159.60 1167.03,1162.45 1166.96,1162.74 C1166.64,1164.03 1165.21,1164.61 1163.17,1164.51 C1162.77,1164.48 1098.64,1164.71 1074.92,1164.77 C1047.89,1164.81 990.53,1164.88 960.19,1164.91 C926.54,1164.92 855.94,1164.93 818.98,1164.92 C778.72,1164.90 694.95,1164.85 651.45,1164.81 C608.83,1164.77 526.77,1164.70 487.33,1164.67 C451.08,1164.64 381.77,1164.60 348.71,1164.57 C318.83,1164.56 262.27,1164.53 235.58,1164.52 C212.07,1164.51 163.10,1164.53 137.62,1164.56 C129.67,1164.63 111.78,1164.62 111.50,1164.50 C110.42,1163.98 110.50,1160.50 110.50,1155.78 C110.52,1135.05 110.54,1090.32 110.55,1066.33 C110.56,1039.07 110.58,981.29 110.58,950.77 C110.59,916.98 110.59,846.14 110.59,809.09 C110.59,768.78 110.59,684.91 110.59,641.36 C110.58,598.37 110.57,515.62 110.57,475.85 C110.56,439.31 110.55,369.46 110.55,336.14 C110.54,306.06 110.53,249.10 110.53,222.24 C110.52,198.60 110.54,153.55 110.56,132.14 C110.80,121.17 110.46,114.77 110.25,113.04 C109.97,110.55 110.36,108.97 111.50,108.50 Z" fill="none" stroke="rgb(0, 0, 0)" stroke-width="24.80" stroke-opacity="1.00" stroke-linejoin="round"/>
</g>
</svg>
