<?xml version="1.0" encoding="UTF-8" standalone="no"?>
<!DOCTYPE svg PUBLIC "-//W3C//DTD SVG 1.1//EN" "http://www.w3.org/Graphics/SVG/1.1/DTD/svg11.dtd">
<svg width="800.00" height="600.00" viewBox="0.00 0.00 800.00 600.00" xmlns="http://www.w3.org/2000/svg" xmlns:xlink="http://www.w3.org/1999/xlink">
<g stroke-linecap="round" id="Geko_3_2">
<path d="M104.50,225.50 C122.82,206.72 133.27,197.02 138.50,193.50 C143.00,190.52 150.82,187.07 154.88,186.28 C161.59,185.03 171.30,184.18 174.21,184.29 C175.78,184.40 178.01,185.35 179.67,186.76 C183.65,190.21 197.81,209.66 200.12,213.57 C202.28,217.27 205.19,224.32 205.50,226.50 C205.82,229.19 205.38,233.26 204.37,234.94 C203.49,236.36 195.28,243.17 194.50,244.50 C193.11,246.90 192.80,249.66 193.50,251.50" fill="none" stroke="rgb(0, 0, 0)" stroke-width="19.84" stroke-opacity="1.00" stroke-linejoin="round"/>
<path d="M147.50,190.50 C150.03,190.44 159.32,190.18 160.40,190.20 C164.52,190.30 171.65,192.30 174.56,194.16 C177.46,196.08 181.56,201.14 183.81,205.09 C189.18,214.62 195.81,238.06 196.50,240.50" fill="none" stroke="rgb(0, 0, 0)" stroke-width="19.84" stroke-opacity="1.00" stroke-linejoin="round"/>
<path d="M634.50,235.50 C634.86,234.40 636.99,227.84 639.50,223.50 C640.64,221.56 646.48,213.21 648.73,210.36 C651.24,207.22 656.92,201.87 659.90,200.64 C661.84,199.87 668.72,200.23 674.50,199.50 C680.60,198.71 697.31,194.99 704.50,195.50 C707.90,195.77 717.25,198.11 720.70,199.56 C722.89,200.51 725.73,202.52 726.76,203.92 C728.52,206.44 728.45,212.35 727.54,215.29 C725.83,220.52 719.85,229.45 711.09,241.21 C671.25,293.59 665.16,302.08 661.65,307.54 C660.66,309.07 659.98,311.08 660.11,312.57 C660.27,313.86 662.20,316.13 664.00,317.22 C667.81,319.45 710.95,333.98 714.50,336.50 C716.44,337.95 717.84,340.40 717.67,342.28 C717.56,343.34 715.64,352.19 714.70,354.98 C713.43,358.66 709.38,362.61 705.06,365.85 C696.58,371.97 662.74,394.43 649.55,402.71 C646.78,404.37 640.68,408.04 636.19,410.14 C631.58,412.28 622.31,414.32 621.50,414.50" fill="none" stroke="rgb(0, 0, 0)" stroke-width="19.84" stroke-opacity="1.00" stroke-linejoin="round"/>
<path d="M331.50,386.50 C330.21,386.48 326.65,386.53 325.97,386.31 C324.62,385.86 323.14,384.03 322.83,382.78 C322.25,379.86 322.05,374.85 322.56,370.91 C323.37,364.90 327.65,348.21 329.69,340.99 C332.15,332.86 337.16,316.94 339.71,309.15 C342.24,301.95 348.44,285.78 351.69,278.11 C357.59,265.31 372.75,232.27 374.64,225.79 C376.97,217.58 377.63,203.02 377.16,201.35 C376.91,200.55 376.21,200.52 375.68,201.17 C374.21,203.14 345.30,277.98 340.59,288.88 C335.71,299.52 330.32,309.77 327.20,315.60 C322.98,323.27 316.33,334.23 312.50,338.50 C310.05,341.20 304.27,346.57 300.11,349.87 C298.30,351.27 296.46,351.80 293.15,352.01 C291.67,352.12 290.79,352.28 290.50,352.50 C289.74,353.10 289.54,359.14 289.50,360.50" fill="none" stroke="rgb(0, 0, 0)" stroke-width="19.84" stroke-opacity="1.00" stroke-linejoin="round"/>
<path d="M640.50,225.50 C647.97,222.59 656.06,220.51 666.36,218.76 C687.24,215.70 703.68,214.87 705.88,215.31 C707.37,215.65 709.72,217.27 710.50,218.50 C711.98,221.07 712.07,226.60 711.64,233.90 C711.59,234.77 711.55,235.63 711.50,236.50" fill="none" stroke="rgb(0, 0, 0)" stroke-width="19.84" stroke-opacity="1.00" stroke-linejoin="round"/>
<path d="M101.50,229.50 C98.40,234.13 88.70,248.62 86.16,252.92 C81.74,260.48 75.58,274.79 73.62,282.32 C72.45,286.87 69.30,302.42 67.82,312.81 C66.91,320.66 65.48,337.85 65.50,341.50 C65.55,346.46 66.48,353.80 67.50,356.80 C68.74,360.35 71.78,365.75 74.55,369.52 C77.06,372.89 82.23,378.82 85.03,381.43 C87.78,383.95 93.89,387.02 97.03,387.24 C100.22,387.39 106.11,385.75 109.66,383.93 C110.95,383.26 118.28,379.02 121.50,377.50 C124.60,376.05 129.55,374.81 133.50,372.50 C135.56,371.28 152.39,359.20 158.31,353.62 C166.74,345.63 184.79,321.92 187.11,320.16 C188.71,318.99 190.88,318.64 191.50,319.50 C192.05,320.38 191.05,343.79 190.67,345.88 C189.46,352.38 175.70,402.29 174.05,409.50 C173.35,412.61 172.04,420.69 171.50,421.50 C170.71,422.66 168.84,423.97 167.50,424.50" fill="none" stroke="rgb(0, 0, 0)" stroke-width="19.84" stroke-opacity="1.00" stroke-linejoin="round"/>
<path d="M102.50,230.50 C100.09,235.60 93.60,249.37 91.00,256.32 C88.57,262.88 84.35,278.10 83.07,284.57 C81.63,291.93 80.19,307.44 80.13,315.85 C80.04,332.71 83.03,355.54 84.82,361.44 C86.17,365.82 89.62,371.34 92.10,373.38 C94.75,375.45 101.00,377.77 105.50,378.21 C107.89,378.42 117.53,378.47 120.50,378.50" fill="none" stroke="rgb(0, 0, 0)" stroke-width="19.84" stroke-opacity="1.00" stroke-linejoin="round"/>
<path d="M710.50,238.50 C710.50,238.50 709.50,240.50 709.50,240.50" fill="none" stroke="rgb(0, 0, 0)" stroke-width="19.84" stroke-opacity="1.00" stroke-linejoin="round"/>
<path d="M401.50,284.50 C393.53,298.39 374.96,330.65 374.55,331.08 C373.77,331.87 370.98,333.24 369.38,333.64 C365.82,334.55 364.00,335.53 362.50,337.50 C361.14,339.38 359.44,349.28 358.79,351.63 C357.75,355.32 354.59,361.59 352.43,364.67 C348.69,369.92 341.08,379.07 335.50,384.50 C329.58,390.07 321.58,397.57 319.50,399.50" fill="none" stroke="rgb(0, 0, 0)" stroke-width="19.84" stroke-opacity="1.00" stroke-linejoin="round"/>
<path d="M253.50,288.50 C255.18,288.44 265.40,288.22 267.50,289.50 C269.29,290.65 270.51,293.02 271.04,295.96 C271.17,296.72 271.32,297.57 271.50,298.50" fill="none" stroke="rgb(0, 0, 0)" stroke-width="19.84" stroke-opacity="1.00" stroke-linejoin="round"/>
<path d="M489.50,291.50 C485.20,297.98 479.40,305.05 472.50,312.76 C466.92,318.82 454.58,329.71 447.54,334.97 C441.56,339.43 433.44,345.52 427.42,351.02 C425.10,353.14 407.36,365.76 403.50,369.50 C401.71,371.26 399.32,374.04 398.50,375.36 C397.97,376.19 395.99,378.81 394.65,378.95 C392.24,379.13 386.08,375.67 383.27,373.43 C374.05,365.64 366.06,360.41 363.05,359.74 C360.95,359.31 356.57,361.12 355.50,361.50" fill="none" stroke="rgb(0, 0, 0)" stroke-width="19.84" stroke-opacity="1.00" stroke-linejoin="round"/>
<path d="M673.50,293.50 C673.09,298.38 672.57,303.93 673.17,306.17 C674.11,309.50 680.18,314.98 683.41,316.89 C688.78,319.99 707.20,326.34 712.74,328.75 C717.28,330.83 723.90,334.55 726.34,336.99 C728.23,338.91 731.42,345.77 731.50,346.50 C731.66,348.51 730.91,350.72 729.27,352.89 C726.43,356.57 711.01,372.46 710.25,373.22 C704.30,379.15 690.75,389.63 683.09,394.16 C672.30,400.49 646.89,410.68 646.74,410.75 C643.97,411.92 639.97,410.44 638.50,409.50" fill="none" stroke="rgb(0, 0, 0)" stroke-width="19.84" stroke-opacity="1.00" stroke-linejoin="round"/>
<path d="M485.50,298.50 C484.80,300.68 485.09,303.44 486.50,304.50 C488.28,305.79 507.86,303.76 508.50,303.50 C509.46,303.11 512.55,301.32 513.50,301.50 C513.91,301.59 522.14,307.50 523.76,309.67 C524.93,311.29 526.23,315.17 526.50,317.50 C527.04,323.22 522.96,334.63 517.73,347.53 C516.22,351.22 512.67,359.05 511.64,360.64 C510.08,363.01 505.66,367.26 502.05,370.04 C498.81,372.51 491.50,377.44 489.50,378.50 C487.97,379.30 473.51,383.73 463.50,387.50" fill="none" stroke="rgb(0, 0, 0)" stroke-width="19.84" stroke-opacity="1.00" stroke-linejoin="round"/>
<path d="M477.50,382.50 C472.41,382.63 466.57,382.83 464.57,382.23 C462.87,381.69 460.47,379.35 459.50,377.50 C458.48,375.39 457.82,367.98 458.29,363.42 C458.50,361.39 460.23,350.18 460.87,346.62 C461.76,341.80 463.92,335.05 465.84,332.91 C467.73,330.95 472.43,330.37 473.39,329.94 C474.62,329.38 477.46,326.52 478.39,325.09 C479.52,323.30 481.51,319.13 482.28,317.88 C483.44,316.03 486.48,313.46 488.50,312.50 C490.97,311.40 498.20,311.08 502.87,311.84 C506.37,312.44 513.63,314.68 515.93,316.67 C519.04,319.46 520.10,330.52 520.50,338.50" fill="none" stroke="rgb(0, 0, 0)" stroke-width="19.84" stroke-opacity="1.00" stroke-linejoin="round"/>
<path d="M236.50,315.50 C236.45,317.12 236.26,326.86 237.50,328.50 C238.64,329.92 240.73,330.43 243.66,330.27 C244.72,330.23 245.34,330.30 245.50,330.50 C245.65,330.72 242.07,335.52 241.50,336.50 C241.07,337.23 238.21,348.66 238.38,351.51 C238.53,353.52 240.10,356.88 241.50,358.50 C243.43,360.59 250.26,363.76 255.37,364.88 C257.47,365.33 269.82,367.47 270.50,367.50 C273.98,367.65 277.63,366.71 278.50,366.50" fill="none" stroke="rgb(0, 0, 0)" stroke-width="19.84" stroke-opacity="1.00" stroke-linejoin="round"/>
<path d="M403.50,369.50 C402.31,369.74 399.01,370.56 398.05,370.40 C396.31,370.08 392.70,368.04 391.19,366.75 C387.83,363.84 382.49,358.48 379.75,355.28 C377.53,352.68 372.45,345.21 371.57,341.66 C371.02,339.31 372.26,333.82 372.50,332.50" fill="none" stroke="rgb(0, 0, 0)" stroke-width="19.84" stroke-opacity="1.00" stroke-linejoin="round"/>
<path d="M316.50,335.50 C317.74,335.42 319.61,335.79 320.50,336.50 C320.86,336.81 322.84,340.39 323.08,341.03 C324.20,344.27 323.35,352.98 322.39,358.20 C321.48,362.74 315.53,386.06 315.50,389.50 C315.50,392.84 316.39,395.61 318.07,397.69 C318.50,398.20 318.97,398.80 319.50,399.50" fill="none" stroke="rgb(0, 0, 0)" stroke-width="19.84" stroke-opacity="1.00" stroke-linejoin="round"/>
<path d="M441.50,342.50 C443.52,341.80 446.23,342.10 447.50,343.50 C449.05,345.28 449.70,363.95 449.50,364.50 C449.08,365.69 447.16,369.32 447.50,370.50 C447.84,371.57 455.61,380.47 457.39,382.65 C460.49,386.53 461.87,389.79 462.50,393.50" fill="none" stroke="rgb(0, 0, 0)" stroke-width="19.84" stroke-opacity="1.00" stroke-linejoin="round"/>
<path d="M161.50,350.50 C162.86,350.88 166.49,351.74 166.82,351.84 C169.02,352.56 171.32,354.48 172.50,356.50 C173.47,358.26 174.42,364.53 174.35,368.90 C174.10,380.56 169.27,412.50 168.18,417.64 C167.19,422.20 165.14,427.43 162.59,431.38 C161.08,433.71 160.45,437.88 160.50,439.50" fill="none" stroke="rgb(0, 0, 0)" stroke-width="19.84" stroke-opacity="1.00" stroke-linejoin="round"/>
<path d="M297.50,351.50 C295.39,355.80 293.82,358.45 291.82,360.11 C288.86,362.46 267.74,372.59 264.40,374.03 C261.40,375.31 253.18,378.07 249.89,378.05 C248.25,378.01 245.90,376.66 244.67,375.31 C242.54,372.83 235.74,358.77 233.50,356.50 C231.92,354.96 229.45,353.63 227.41,353.20 C226.98,353.12 223.75,352.70 222.50,352.50" fill="none" stroke="rgb(0, 0, 0)" stroke-width="19.84" stroke-opacity="1.00" stroke-linejoin="round"/>
<path d="M516.50,352.50 C516.22,354.55 516.93,357.37 518.50,358.50 C519.57,359.27 525.62,359.66 527.26,360.04 C528.41,360.31 529.16,360.79 529.50,361.50 C529.77,362.20 527.93,364.73 526.45,366.01 C524.67,367.47 521.28,369.21 519.50,369.50 C517.69,369.75 514.54,369.10 512.48,368.14 C512.00,367.91 508.76,366.16 507.50,365.50" fill="none" stroke="rgb(0, 0, 0)" stroke-width="19.84" stroke-opacity="1.00" stroke-linejoin="round"/>
<path d="M216.50,362.50 C218.35,359.68 222.95,352.67 225.70,348.48 C229.19,343.05 230.43,340.82 230.50,338.50 C230.58,333.65 233.77,320.98 236.91,313.16 C238.66,308.84 241.80,302.55 244.11,298.97 C246.40,295.47 251.87,288.77 255.05,285.53 C258.51,282.05 264.08,277.43 267.22,275.52 C268.67,274.70 271.70,274.07 272.94,274.57 C274.12,275.10 275.75,278.56 276.18,280.80 C276.78,284.40 275.51,290.03 273.81,293.60 C270.46,300.47 262.30,317.12 259.50,320.50 C256.65,323.87 249.35,327.96 248.50,328.50 C248.07,328.77 247.07,329.44 245.50,330.50" fill="none" stroke="rgb(0, 0, 0)" stroke-width="19.84" stroke-opacity="1.00" stroke-linejoin="round"/>
<path d="M103.50,386.50 C103.50,386.50 104.50,393.50 104.50,393.50" fill="none" stroke="rgb(0, 0, 0)" stroke-width="19.84" stroke-opacity="1.00" stroke-linejoin="round"/>
</g>
</svg>
