<?xml version="1.0" standalone="no"?>
<!DOCTYPE svg PUBLIC "-//W3C//DTD SVG 20010904//EN"
 "http://www.w3.org/TR/2001/REC-SVG-20010904/DTD/svg10.dtd">
<svg version="1.0" xmlns="http://www.w3.org/2000/svg"
 width="740.000000pt" height="304.000000pt" viewBox="0 0 740.000000 304.000000"
 preserveAspectRatio="xMidYMid meet">

<g transform="translate(0.000000,304.000000) scale(0.100000,-0.100000)"
fill="#000000" stroke="none">
<path d="M2955 2494 c-55 -14 -117 -29 -137 -35 l-38 -10 0 -839 0 -840 145 0
145 0 0 203 0 202 69 75 68 75 98 -150 c54 -82 136 -207 181 -277 l84 -128
170 0 169 0 -124 190 c-69 105 -181 275 -249 379 l-124 189 67 74 c36 40 131
144 210 231 l143 157 -171 0 -170 0 -208 -228 -208 -228 -3 493 c-1 271 -6
493 -10 492 -4 0 -52 -12 -107 -25z"/>
<path d="M6402 2450 c-80 -21 -171 -66 -222 -109 l-33 -27 72 -102 72 -102 41
35 c51 43 134 75 194 75 160 0 244 -90 231 -247 -9 -121 -80 -182 -223 -191
l-74 -5 0 -117 0 -117 79 -6 c166 -11 265 -99 278 -247 11 -119 -36 -218 -123
-260 -41 -20 -65 -24 -144 -25 -109 0 -156 16 -247 87 -31 24 -57 37 -62 32
-5 -5 -38 -55 -74 -111 l-66 -102 37 -31 c58 -49 173 -99 264 -117 156 -29
370 -1 492 65 177 96 267 304 226 523 -22 115 -109 234 -211 288 l-46 25 48
37 c113 90 167 216 156 368 -7 106 -37 179 -102 249 -91 98 -198 140 -380 148
-89 3 -124 1 -183 -16z"/>
<path d="M1000 2027 c-29 -34 -55 -62 -59 -62 -3 1 -40 12 -81 25 -103 34
-284 35 -374 2 -193 -71 -315 -235 -316 -424 0 -148 62 -278 175 -366 28 -22
28 -24 11 -34 -38 -21 -98 -83 -117 -119 -36 -72 -20 -158 41 -212 58 -53 102
-63 270 -58 349 10 376 6 405 -50 23 -43 18 -75 -15 -113 -45 -51 -112 -71
-240 -71 -126 0 -192 21 -284 90 l-59 44 -88 -112 -88 -112 52 -33 c70 -46
144 -78 235 -105 101 -28 322 -31 422 -4 155 41 286 134 333 235 32 68 31 216
-1 287 -42 92 -115 144 -241 171 -88 18 -152 18 -298 -3 -130 -18 -175 -13
-181 20 -9 44 80 91 143 77 97 -23 224 -4 317 47 57 31 138 113 167 171 66
129 66 324 1 452 l-20 39 65 47 c36 25 64 51 62 57 -2 6 -44 48 -94 94 l-90
83 -53 -63z m-247 -250 c44 -19 103 -87 116 -134 23 -82 4 -201 -41 -258 -62
-79 -208 -85 -286 -12 -58 54 -87 175 -63 265 31 113 168 183 274 139z"/>
<path d="M1825 1995 c-234 -51 -415 -242 -461 -486 -19 -97 -14 -260 10 -349
57 -207 212 -350 428 -394 184 -38 438 -4 561 74 l47 30 -56 111 -55 111 -27
-25 c-88 -82 -284 -111 -424 -62 -97 34 -176 134 -194 244 l-7 41 441 0 440 0
11 63 c39 223 -47 434 -226 558 -123 85 -325 120 -488 84z m239 -229 c80 -24
121 -58 155 -128 16 -35 33 -80 37 -100 l6 -38 -301 0 -301 0 6 28 c13 59 66
152 107 187 71 61 189 81 291 51z"/>
<path d="M4424 1996 c-283 -65 -459 -328 -441 -656 7 -126 25 -201 73 -299 70
-143 201 -241 366 -275 286 -59 553 53 663 277 56 115 69 182 69 342 0 220
-44 346 -163 466 -108 108 -208 148 -391 155 -77 2 -135 -1 -176 -10z m283
-247 c91 -47 140 -152 150 -320 16 -274 -96 -449 -287 -449 -105 0 -188 46
-234 130 -71 130 -74 387 -6 519 28 56 92 116 143 135 62 23 173 16 234 -15z"/>
</g>
</svg>
