<?xml version="1.0" encoding="UTF-8" standalone="no"?>
<!DOCTYPE svg PUBLIC "-//W3C//DTD SVG 1.1//EN" "http://www.w3.org/Graphics/SVG/1.1/DTD/svg11.dtd">
<svg width="256.00" height="256.00" viewBox="0.00 0.00 256.00 256.00" xmlns="http://www.w3.org/2000/svg" xmlns:xlink="http://www.w3.org/1999/xlink">
<g stroke-linecap="round" id="Layer_3">
<path d="M82.97,81.46 C82.71,80.76 77.72,78.18 74.37,77.66 C72.65,77.41 59.48,77.28 56.41,78.42 C54.60,79.12 48.41,82.95 46.55,84.49 C44.33,86.35 39.90,91.50 38.20,94.10 C36.30,97.07 34.80,101.10 33.90,105.23 C33.15,108.82 32.81,128.75 33.39,131.80 C34.11,135.36 36.65,142.63 38.45,146.47 C40.03,149.78 43.26,154.96 45.28,157.60 C47.24,160.11 51.24,163.86 54.14,164.94 C57.32,166.05 63.28,165.79 66.23,164.80 C68.79,163.89 73.75,161.09 74.80,160.17 C76.46,158.70 81.29,153.12 83.54,150.41 C86.02,147.39 87.15,145.22 89.00,140.38 C90.00,137.73 91.79,132.89 92.21,130.52 C92.59,128.33 93.12,120.81 93.09,120.41 C92.82,116.75 91.61,115.98 90.82,115.86 C90.82,115.86 82.21,133.06 82.21,133.06 C80.73,133.17 78.94,131.97 74.88,128.76 C74.09,128.13 67.21,123.14 67.04,122.94 C68.74,122.81 109.36,111.55 119.63,109.40 C124.99,108.26 140.06,102.88 142.93,101.44 C143.90,100.94 144.24,100.33 144.44,100.18" fill="none" stroke="rgb(26, 109, 18)" stroke-width="15.00" stroke-opacity="1.00" stroke-linejoin="round"/>
<path d="M131.04,62.23 C131.06,61.09 131.30,60.69 132.81,59.45 C135.09,57.57 136.69,56.62 139.89,55.65 C148.04,53.26 169.16,53.06 175.05,53.38 C178.64,53.59 184.54,55.35 187.13,56.28 C190.01,57.35 193.66,60.52 193.77,61.98 C193.85,65.06 192.40,68.64 190.41,70.45 C186.32,74.00 164.85,84.44 163.16,86.52 C162.60,87.23 160.58,90.19 160.89,91.07 C161.62,92.87 179.86,102.75 183.91,105.49 C189.76,109.56 197.82,115.64 201.51,119.29 C203.76,121.58 208.42,126.37 210.82,128.88 C213.43,131.66 215.58,134.56 218.52,139.57 C220.77,143.48 221.80,148.55 221.35,150.52 C221.01,151.68 219.78,153.36 218.56,154.06 C213.93,156.62 201.84,157.88 189.71,160.19 C163.92,165.14 154.47,169.00 153.30,168.98" fill="none" stroke="rgb(26, 109, 18)" stroke-width="15.00" stroke-opacity="1.00" stroke-linejoin="round"/>
</g>
</svg>
