<?xml version="1.0" encoding="UTF-8" standalone="no"?>
<!DOCTYPE svg PUBLIC "-//W3C//DTD SVG 1.1//EN" "http://www.w3.org/Graphics/SVG/1.1/DTD/svg11.dtd">
<svg width="740.00" height="304.00" viewBox="0.00 0.00 740.00 304.00" xmlns="http://www.w3.org/2000/svg" xmlns:xlink="http://www.w3.org/1999/xlink">
<g stroke-linecap="round" transform="translate(-25.00, -54.00)" id="geko_3_2">
<path d="M414.98,280.81 C413.97,279.81 411.28,278.63 408.36,278.08 C407.50,277.92 399.37,277.80 392.76,277.96 C386.81,278.09 384.18,278.00 383.05,276.52 C382.45,275.71 349.31,223.39 348.38,222.74 C347.06,221.87 343.57,222.08 342.15,223.13 C341.86,223.36 338.72,227.00 337.09,228.59 C335.74,229.93 331.40,233.44 331.07,233.80 C329.79,235.20 328.36,238.47 328.21,240.12 C328.10,241.77 329.04,264.17 328.95,272.36 C328.90,274.94 328.99,277.53 328.91,277.69 C328.65,278.17 320.55,277.67 315.33,277.85 C313.13,277.91 307.94,278.54 307.93,278.54 C306.66,278.50 306.24,277.47 306.25,275.49 C306.27,275.15 306.36,178.20 306.53,144.21 C306.46,138.80 305.64,120.30 305.73,118.77 C305.85,117.15 306.95,115.35 308.14,114.96 C308.15,114.96 319.09,113.34 322.18,112.58 C324.58,112.00 327.31,111.08 328.13,110.88 C328.81,110.74 328.93,111.44 328.88,113.67 C328.70,117.74 328.72,207.52 328.91,207.93 C329.52,209.15 332.46,209.57 333.97,208.71 C335.23,207.95 374.47,162.24 374.87,161.94 C375.46,161.52 380.09,161.72 387.03,161.83 C390.61,161.86 399.90,161.64 403.06,160.39 C403.61,160.17 404.20,159.77 404.86,159.21" fill="none" stroke="rgb(0, 0, 0)" stroke-width="7.73" stroke-opacity="1.00" stroke-linejoin="round"/>
<path d="M654.51,140.89 C657.39,139.21 664.73,135.05 668.53,133.88 C671.63,132.96 678.58,132.54 682.27,132.95 C685.74,133.36 692.72,135.58 695.53,137.09 C696.89,137.85 699.63,139.91 700.47,140.89 C702.62,143.53 704.16,150.59 704.36,154.92 C704.45,157.30 703.93,165.63 703.29,168.48 C702.51,171.72 699.23,176.48 696.43,178.38 C693.94,180.02 688.32,181.86 684.94,182.35 C681.71,182.78 675.09,182.15 674.37,182.99 C673.82,183.71 674.64,191.55 674.10,195.11 C673.94,196.28 673.58,200.09 674.37,200.91 C675.61,202.09 684.72,201.54 687.84,201.98 C690.83,202.43 696.61,205.49 700.03,207.96 C702.07,209.47 704.43,211.72 705.55,213.34 C707.61,216.44 709.43,223.85 709.61,228.38 C709.69,230.80 709.48,240.89 708.56,244.47 C707.89,246.96 704.12,253.41 702.59,254.73 C700.50,256.48 693.52,258.91 690.93,259.58 C687.40,260.48 681.01,261.34 677.36,261.45 C673.53,261.52 667.05,260.01 663.32,258.18 C660.73,256.89 650.71,250.38 650.62,250.41 C650.31,250.52 643.31,260.99 642.47,262.38 C641.49,264.07 641.03,266.91 641.66,267.93 C642.49,269.13 663.56,278.30 668.75,279.43 C671.14,279.94 677.99,280.51 680.87,280.30 C684.24,279.97 690.67,279.30 693.73,278.96 C697.45,278.46 703.99,276.03 708.22,273.90 C712.60,271.67 719.20,267.37 721.89,264.83 C724.58,262.25 728.15,256.97 729.99,253.20 C731.77,249.45 733.68,244.05 734.19,240.55 C734.69,236.98 734.79,229.97 734.26,226.97 C733.61,223.50 730.42,216.05 729.13,213.56 C727.38,210.20 723.70,205.01 721.43,202.90 C719.17,200.84 714.95,198.17 710.44,195.95 C708.84,195.08 707.36,192.99 707.32,191.45 C707.35,190.06 708.79,188.14 710.47,187.02 C714.23,184.60 718.71,180.81 720.18,178.98 C722.21,176.43 725.12,170.34 726.59,166.19 C728.26,161.31 729.34,157.13 729.19,154.85 C728.99,152.28 727.35,143.20 726.62,140.97 C725.40,137.32 720.83,130.26 718.54,127.80 C715.80,124.92 709.28,120.77 705.36,119.19 C702.60,118.10 692.41,115.08 691.12,114.78 C687.12,113.87 681.08,113.44 678.66,113.61 C674.78,113.92 667.69,115.60 664.15,116.99 C656.06,120.23 648.12,124.25 646.31,125.68 C645.25,126.58 645.09,128.20 645.98,129.54 C646.66,130.53 650.51,135.59 652.53,139.10" fill="none" stroke="rgb(0, 0, 0)" stroke-width="7.73" stroke-opacity="1.00" stroke-linejoin="round"/>
<path d="M261.14,269.90 C259.16,266.42 253.45,256.68 252.96,256.26 C252.22,255.66 250.50,257.68 249.85,258.21 C249.06,258.86 239.94,261.42 235.83,262.10 C232.69,262.61 225.67,262.99 222.22,262.80 C218.67,262.59 211.16,261.13 207.84,260.08 C204.02,258.83 198.27,255.51 195.80,252.86 C193.43,250.24 190.45,244.73 189.37,240.99 C188.38,237.45 187.25,226.45 187.53,226.25 C188.05,225.92 233.12,225.83 251.34,225.78 C262.79,225.86 271.50,226.55 272.76,226.38 C274.08,226.14 275.72,224.45 276.12,222.77 C276.23,222.28 276.96,210.29 276.72,207.54 C276.65,206.79 274.54,197.08 273.22,193.51 C272.25,190.93 268.33,183.09 266.12,180.41 C263.62,177.42 257.45,172.39 254.30,170.32 C251.53,168.50 243.16,163.64 242.06,163.11 C238.08,161.20 233.40,160.27 230.37,159.99 C229.77,159.94 218.81,159.42 216.35,159.60 C213.21,159.86 205.92,161.59 201.55,163.50 C199.76,164.29 192.21,168.44 189.90,169.93 C186.85,171.94 181.22,177.03 178.81,180.08 C176.36,183.23 172.76,189.37 170.52,193.76 C168.21,198.45 165.76,204.38 165.06,207.65 C164.00,212.83 164.23,229.49 165.02,234.12 C165.97,239.49 171.83,253.70 174.29,257.43 C175.97,259.93 180.39,264.72 183.09,267.08 C185.57,269.22 191.13,272.74 194.08,274.20 C197.51,275.88 203.16,277.89 207.33,278.93 C211.55,279.94 219.22,280.52 223.40,280.34 C227.39,280.13 235.63,279.21 239.35,278.53 C248.40,276.83 256.27,272.67 259.38,270.78 C260.82,269.89 261.55,269.92 262.70,270.68" fill="none" stroke="rgb(0, 0, 0)" stroke-width="7.73" stroke-opacity="1.00" stroke-linejoin="round"/>
<path d="M480.03,159.21 C484.24,159.04 501.60,162.09 507.65,164.66 C511.20,166.21 516.84,170.79 519.79,173.90 C522.42,176.71 527.21,182.71 529.26,185.85 C531.27,188.99 534.17,195.56 535.08,199.16 C536.83,206.28 537.54,220.33 536.89,227.81 C536.53,231.77 535.14,239.70 533.77,243.40 C532.76,246.06 528.74,253.71 526.41,257.51 C524.33,260.85 519.38,266.75 516.73,268.70 C513.79,270.84 506.64,274.34 503.33,275.70 C499.86,277.11 492.22,279.56 488.41,280.06 C485.53,280.41 477.04,280.06 473.99,279.61 C471.24,279.19 464.55,277.71 461.12,276.31 C457.35,274.76 450.89,271.43 448.82,270.07 C446.14,268.26 441.64,262.71 439.14,258.86 C437.06,255.61 432.91,248.31 431.18,244.83 C429.45,241.31 427.48,235.33 427.13,232.04 C426.61,226.37 426.68,211.56 427.64,206.18 C428.41,202.11 430.64,195.52 432.31,192.24 C434.15,188.67 437.64,182.76 439.72,179.89 C441.91,176.90 447.50,171.15 450.34,169.08 C453.51,166.81 460.50,163.72 464.64,162.59 C466.68,162.04 479.33,159.25 480.03,159.21 Z" fill="none" stroke="rgb(0, 0, 0)" stroke-width="7.73" stroke-opacity="1.00" stroke-linejoin="round"/>
<path d="M398.24,161.94 C387.76,173.68 364.98,199.54 362.86,202.55 C362.23,203.53 362.21,205.23 362.83,206.89 C365.19,212.92 404.07,271.60 408.36,278.08" fill="none" stroke="rgb(0, 0, 0)" stroke-width="7.73" stroke-opacity="1.00" stroke-linejoin="round"/>
<path d="M141.85,165.17 C137.51,161.31 134.14,157.73 131.98,155.27 C131.40,154.77 130.06,155.81 128.93,157.29 C127.76,158.88 125.03,162.49 123.94,163.61 C122.62,164.91 119.41,166.17 117.83,165.90 C117.37,165.81 108.14,161.86 103.76,160.85 C100.85,160.23 94.39,158.82 90.94,159.21 C89.74,159.35 78.55,161.39 75.36,162.33 C71.69,163.44 65.97,166.30 62.90,168.95 C60.60,170.97 56.53,175.62 52.30,180.72 C48.74,185.05 47.56,187.37 46.83,192.35 C46.24,196.48 45.12,205.52 45.54,208.24 C45.72,209.36 48.95,218.92 50.02,220.82 C52.70,225.46 65.16,236.92 65.63,237.55 C66.67,239.02 66.66,241.08 65.63,242.23 C65.04,242.83 58.51,246.71 55.98,249.63 C53.57,252.49 49.87,258.74 49.88,261.22 C49.89,261.88 51.01,265.47 51.22,266.00 C52.79,269.76 56.72,273.32 60.24,275.10 C63.34,276.60 69.52,277.99 73.84,278.17 C80.67,278.41 93.85,276.41 102.02,276.09 C106.99,275.91 114.46,276.41 117.58,277.43 C119.18,277.97 121.67,279.47 122.80,280.53 C123.91,281.66 125.22,284.49 125.48,286.50 C125.61,287.57 125.41,293.45 125.22,294.45 C124.74,296.65 123.06,299.26 121.32,300.69 C119.79,301.88 113.76,304.85 109.64,305.75 C107.37,306.23 98.85,307.09 95.17,307.17 C91.22,307.23 83.54,306.51 80.00,305.64 C76.88,304.86 69.74,302.01 67.07,299.99 C66.14,299.29 63.23,296.90 62.12,296.79 C61.11,296.74 59.82,297.76 58.45,299.49 C56.08,302.54 51.29,308.60 48.88,311.60" fill="none" stroke="rgb(0, 0, 0)" stroke-width="7.73" stroke-opacity="1.00" stroke-linejoin="round"/>
<path d="M143.91,167.01 C141.39,168.67 134.60,173.27 133.78,174.41 C132.65,176.11 132.91,178.06 134.56,181.43 C135.19,182.66 139.31,192.67 140.02,196.24 C140.73,200.04 140.27,208.24 139.63,211.83 C139.00,215.20 136.78,221.36 134.95,224.30 C133.67,226.33 128.72,232.20 126.21,234.57 C123.55,237.04 116.95,241.20 113.29,242.62 C109.65,243.98 103.22,244.86 98.43,244.98 C95.64,245.02 89.12,244.07 86.65,244.31 C82.95,244.70 76.23,246.25 74.81,247.19 C73.70,247.99 72.40,250.49 72.11,252.38 C71.95,253.69 71.96,258.43 72.25,259.37 C72.84,261.11 74.99,262.12 77.70,262.10 C79.89,262.05 106.97,258.50 107.99,258.42 C109.77,258.30 117.71,259.78 121.53,260.52 C127.06,261.73 132.56,263.37 134.47,264.74 C136.70,266.38 141.17,271.79 142.99,274.50 C144.80,277.25 147.13,283.21 147.37,285.71 C147.63,288.65 146.26,295.36 145.14,298.52 C143.86,302.04 140.81,307.13 138.59,309.47 C136.54,311.58 131.00,315.43 127.71,317.06 C124.52,318.61 118.49,321.05 114.04,322.70 C110.66,323.93 105.06,325.24 101.93,325.47 C96.83,325.81 81.41,325.01 75.24,323.49 C69.05,321.93 50.46,313.30 48.81,312.57 C47.56,312.00 46.29,311.99 43.82,312.38" fill="none" stroke="rgb(0, 0, 0)" stroke-width="7.73" stroke-opacity="1.00" stroke-linejoin="round"/>
<path d="M87.05,176.75 C87.58,176.72 98.54,176.90 100.29,177.14 C103.48,177.61 107.89,179.96 110.66,182.42 C112.63,184.23 114.51,186.86 115.48,189.22 C116.33,191.38 117.05,197.39 117.34,202.67 C117.52,206.47 116.86,212.31 115.87,214.94 C114.73,217.83 111.27,222.58 108.63,224.39 C105.47,226.47 99.65,228.34 95.57,228.45 C90.84,228.51 82.87,227.39 79.65,225.86 C76.49,224.28 71.65,218.89 70.28,215.35 C68.99,211.87 68.28,203.73 68.57,199.31 C68.86,195.20 70.70,187.08 72.80,184.29 C76.56,179.41 84.88,176.89 87.05,176.75 Z" fill="none" stroke="rgb(0, 0, 0)" stroke-width="7.73" stroke-opacity="1.00" stroke-linejoin="round"/>
<path d="M475.74,176.75 C475.87,176.74 487.15,177.59 491.84,177.94 C494.41,178.16 497.87,178.83 499.22,179.50 C499.80,179.81 502.00,181.99 503.68,183.54 C507.00,186.73 509.89,192.50 511.15,197.10 C513.36,205.42 514.32,219.79 513.91,227.81 C513.66,232.32 512.69,239.07 511.18,242.62 C510.05,245.21 505.36,252.39 502.86,255.43 C500.43,258.32 496.14,261.07 492.89,261.86 C489.87,262.54 482.41,263.14 480.21,263.14 C476.32,263.12 470.51,261.83 466.96,260.18 C463.66,258.60 458.46,254.46 456.52,251.68 C454.55,248.78 452.00,241.91 451.21,237.16 C450.30,231.49 450.27,210.12 450.85,205.28 C451.22,202.33 453.08,196.61 454.46,193.85 C456.02,190.80 459.43,185.43 461.69,183.14 C464.19,180.68 468.55,178.68 473.34,177.66 C475.06,177.31 475.56,176.76 475.74,176.75 Z" fill="none" stroke="rgb(0, 0, 0)" stroke-width="7.73" stroke-opacity="1.00" stroke-linejoin="round"/>
<path d="M214.80,177.14 C215.41,177.11 224.94,176.95 227.87,177.15 C231.56,177.43 237.72,179.28 241.09,181.06 C244.14,182.73 248.69,187.30 250.24,190.39 C250.98,191.93 253.78,201.44 254.40,204.86 C254.82,207.47 254.15,209.51 252.57,210.27 C250.03,211.37 205.76,210.29 190.46,210.32 C189.15,210.24 187.73,209.00 187.84,207.47 C187.97,205.94 192.06,194.65 192.36,193.93 C193.87,190.37 198.12,185.10 201.96,182.58 C203.03,181.89 206.92,179.57 207.78,179.09 C209.91,177.92 212.17,177.30 214.80,177.14 Z" fill="none" stroke="rgb(0, 0, 0)" stroke-width="7.73" stroke-opacity="1.00" stroke-linejoin="round"/>
<path d="M81.21,170.37 C81.21,170.37 85.84,168.05 85.84,168.05 C85.37,167.84 79.16,168.07 77.11,168.41 C70.22,169.59 68.39,171.63 68.03,172.33 C68.21,172.86 76.02,173.66 80.64,172.05 C83.65,170.97 85.88,169.36 86.55,168.76 C86.55,168.76 86.37,167.69 86.37,167.69 C86.09,167.55 84.65,167.52 84.06,167.52 C81.71,167.52 80.26,168.04 79.78,169.12 C79.53,169.72 80.18,170.42 81.21,171.08" fill="none" stroke="rgb(255, 255, 255)" stroke-width="3.90" stroke-opacity="1.00" stroke-linejoin="round"/>
</g>
</svg>
